<svg width="22" height="19" viewBox="0 0 22 19" fill="none" xmlns="http://www.w3.org/2000/svg">
<path fill-rule="evenodd" clip-rule="evenodd" d="M10.9726 17.8682C7.73355 17.8682 4.96655 17.3782 4.96655 15.4162C4.96655 13.4542 7.71555 11.7462 10.9726 11.7462C14.2116 11.7462 16.9786 13.4382 16.9786 15.3992C16.9786 17.3602 14.2296 17.8682 10.9726 17.8682Z" stroke="white" stroke-width="1.5" stroke-linecap="round" stroke-linejoin="round"/>
<path fill-rule="evenodd" clip-rule="evenodd" d="M10.9726 8.94875C13.0986 8.94875 14.8226 7.22575 14.8226 5.09976C14.8226 2.97376 13.0986 1.24976 10.9726 1.24976C8.84659 1.24976 7.12257 2.97376 7.12257 5.09976C7.11659 7.21775 8.82659 8.94175 10.9456 8.94875H10.9726Z" stroke="white" stroke-width="1.5" stroke-linecap="round" stroke-linejoin="round"/>
<path d="M17.3623 7.89166C18.5993 7.56066 19.5113 6.43266 19.5113 5.08966C19.5113 3.68866 18.5183 2.51866 17.1963 2.24866" stroke="white" stroke-width="1.5" stroke-linecap="round" stroke-linejoin="round"/>
<path d="M17.9434 11.0444C19.6974 11.0444 21.1954 12.2334 21.1954 13.2954C21.1954 13.9204 20.6784 14.6014 19.8944 14.7854" stroke="white" stroke-width="1.5" stroke-linecap="round" stroke-linejoin="round"/>
<path d="M4.58384 7.89166C3.34584 7.56066 2.43384 6.43266 2.43384 5.08966C2.43384 3.68866 3.42784 2.51866 4.74884 2.24866" stroke="white" stroke-width="1.5" stroke-linecap="round" stroke-linejoin="round"/>
<path d="M4.00176 11.0444C2.24776 11.0444 0.749756 12.2334 0.749756 13.2954C0.749756 13.9204 1.26676 14.6014 2.05176 14.7854" stroke="white" stroke-width="1.5" stroke-linecap="round" stroke-linejoin="round"/>
</svg>
