<svg width="24" height="23" viewBox="0 0 24 23" fill="none" xmlns="http://www.w3.org/2000/svg">
<path d="M7.01294 14.4923L10.0702 10.6853L13.5575 13.3088L16.5494 9.60852" stroke="white" stroke-width="1.5" stroke-linecap="round" stroke-linejoin="round"/>
<path fill-rule="evenodd" clip-rule="evenodd" d="M20.0365 2.25208C21.1213 2.25208 21.9998 3.09393 21.9998 4.13353C21.9998 5.17215 21.1213 6.01499 20.0365 6.01499C18.9517 6.01499 18.0732 5.17215 18.0732 4.13353C18.0732 3.09393 18.9517 2.25208 20.0365 2.25208Z" stroke="white" stroke-width="1.5" stroke-linecap="round" stroke-linejoin="round"/>
<path d="M21.1484 9.02507C21.2843 9.90119 21.3466 10.8879 21.3466 11.9951C21.3466 18.7867 18.985 21.0499 11.898 21.0499C4.81212 21.0499 2.44946 18.7867 2.44946 11.9951C2.44946 5.2044 4.81212 2.94019 11.898 2.94019C13.0319 2.94019 14.0441 2.99794 14.9451 3.12324" stroke="white" stroke-width="1.5" stroke-linecap="round" stroke-linejoin="round"/>
</svg>
