<svg width="75" height="60" viewBox="0 0 75 60" fill="none" xmlns="http://www.w3.org/2000/svg">
<path d="M61.4204 58.5673C63.7517 60.6206 67.3477 60.4133 69.0295 57.8013C71.2014 54.428 72.8247 50.7176 73.8265 46.8077C75.2954 41.075 75.3866 35.076 74.0928 29.3013C72.7989 23.5266 70.1567 18.14 66.3823 13.5821C62.6078 9.02419 57.8081 5.42429 52.3758 3.07674C46.9434 0.729184 41.0326 -0.299366 35.1266 0.0751831C29.2206 0.449732 23.487 2.21675 18.3948 5.23175C13.3025 8.24676 8.99609 12.4241 5.82763 17.4224C3.66659 20.8314 2.07676 24.5563 1.10849 28.4497C0.358727 31.4645 2.672 34.2254 5.76496 34.5162C8.85792 34.807 11.5437 32.5017 12.4855 29.5414C13.1658 27.4033 14.1198 25.3538 15.3293 23.4457C17.5473 19.9469 20.5617 17.0227 24.1263 14.9122C27.6909 12.8017 31.7044 11.5648 35.8386 11.3026C39.9728 11.0404 44.1104 11.7604 47.9131 13.4037C51.7157 15.047 55.0754 17.5669 57.7176 20.7575C60.3597 23.948 62.2093 27.7186 63.1149 31.7609C64.0206 35.8032 63.9568 40.0025 62.9286 44.0154C62.3678 46.2039 61.529 48.3031 60.438 50.2637C58.9274 52.9783 59.089 56.5141 61.4204 58.5673Z" fill="url(#paint0_linear_1_995)"/>
<defs>
<linearGradient id="paint0_linear_1_995" x1="37.5" y1="0" x2="37.5" y2="75" gradientUnits="userSpaceOnUse">
<stop stop-color="white"/>
<stop offset="1" stop-color="white" stop-opacity="0.8"/>
</linearGradient>
</defs>
</svg>
