<svg width="24" height="24" viewBox="0 0 24 24" fill="none" xmlns="http://www.w3.org/2000/svg">
<path fill-rule="evenodd" clip-rule="evenodd" d="M12 19.478C8.76371 19.478 6 19.0164 6 17.1676C6 15.3188 8.74618 13.6121 12 13.6121C15.2363 13.6121 18 15.3022 18 17.1511C18 18.9991 15.2538 19.478 12 19.478Z" stroke="white" stroke-width="1.5" stroke-linecap="round" stroke-linejoin="round"/>
<path fill-rule="evenodd" clip-rule="evenodd" d="M11.9934 11.0501C14.1172 11.0501 15.8386 9.47224 15.8386 7.52544C15.8386 5.57863 14.1172 4 11.9934 4C9.86965 4 8.14748 5.57863 8.14748 7.52544C8.14033 9.46567 9.84972 11.0436 11.9663 11.0501C11.9759 11.0501 11.9847 11.0501 11.9934 11.0501Z" stroke="white" stroke-width="1.5" stroke-linecap="round" stroke-linejoin="round"/>
</svg>
